<svg id="svg" version="1.1" xmlns="http://www.w3.org/2000/svg" xmlns:xlink="http://www.w3.org/1999/xlink" width="400" height="400" viewBox="0, 0, 400,400"><g id="svgg"><path id="path0" d="M141.100 63.464 C 140.275 63.565,139.600 63.802,139.600 63.989 C 139.600 64.176,138.880 64.451,138.000 64.600 C 137.120 64.749,136.400 65.017,136.400 65.196 C 136.400 65.375,135.857 65.711,135.193 65.942 C 134.117 66.317,133.105 67.096,130.879 69.259 C 129.367 70.728,128.400 71.937,128.400 72.356 C 128.400 72.600,128.249 72.800,128.065 72.800 C 127.644 72.800,125.600 76.800,125.600 77.626 C 125.600 77.964,125.378 78.462,125.107 78.733 C 124.461 79.379,124.408 89.905,125.049 90.319 C 125.289 90.473,125.608 91.269,125.758 92.087 C 125.908 92.905,126.271 93.813,126.563 94.106 C 126.855 94.398,127.232 95.079,127.400 95.619 C 127.568 96.158,128.221 97.066,128.853 97.636 C 129.484 98.205,130.000 98.880,130.000 99.136 C 130.000 99.391,130.189 99.600,130.419 99.600 C 130.650 99.600,131.257 100.051,131.768 100.603 C 132.835 101.755,135.452 103.600,136.018 103.600 C 136.228 103.600,136.400 103.766,136.400 103.968 C 136.400 104.171,136.985 104.463,137.700 104.618 C 138.415 104.774,139.128 105.103,139.285 105.350 C 139.680 105.972,151.268 105.968,152.038 105.346 C 152.347 105.097,153.185 104.767,153.900 104.614 C 154.615 104.462,155.200 104.171,155.200 103.968 C 155.200 103.766,155.456 103.600,155.769 103.600 C 156.082 103.600,156.873 103.150,157.527 102.600 C 158.181 102.050,158.870 101.594,159.058 101.587 C 159.246 101.579,160.030 100.850,160.800 99.967 C 161.570 99.083,162.684 97.826,163.275 97.174 C 163.866 96.522,164.475 95.586,164.629 95.094 C 164.782 94.602,165.074 94.093,165.278 93.962 C 165.481 93.831,165.858 92.616,166.115 91.262 C 166.373 89.908,166.722 88.800,166.892 88.800 C 167.061 88.800,167.200 86.910,167.200 84.600 C 167.200 82.290,167.061 80.400,166.892 80.400 C 166.722 80.400,166.373 79.292,166.115 77.938 C 165.858 76.584,165.481 75.369,165.278 75.238 C 165.074 75.107,164.773 74.567,164.607 74.038 C 164.442 73.508,163.877 72.678,163.353 72.192 C 162.829 71.706,162.400 71.149,162.399 70.954 C 162.398 70.485,159.320 67.600,158.819 67.600 C 158.604 67.600,158.243 67.255,158.017 66.833 C 157.791 66.410,157.065 65.946,156.403 65.801 C 155.741 65.655,155.200 65.387,155.200 65.203 C 155.200 65.020,154.435 64.742,153.500 64.586 C 152.565 64.430,151.693 64.133,151.561 63.926 C 151.299 63.515,143.498 63.170,141.100 63.464 " stroke="none" fill="#74acc4" fill-rule="evenodd"></path><path id="path1" d="M221.600 54.431 C 221.600 54.668,221.015 54.823,220.300 54.775 C 219.585 54.728,218.640 54.821,218.200 54.983 C 216.163 55.731,213.600 57.018,213.600 57.294 C 213.600 57.462,213.353 57.600,213.052 57.600 C 211.942 57.600,206.420 63.645,205.829 65.508 C 205.674 65.998,205.386 66.400,205.191 66.400 C 204.996 66.400,204.712 67.075,204.560 67.900 C 204.409 68.725,204.089 69.526,203.851 69.680 C 203.242 70.073,203.294 80.364,203.907 80.743 C 204.158 80.897,204.484 81.784,204.632 82.712 C 204.781 83.640,205.045 84.400,205.220 84.400 C 205.395 84.400,205.746 85.030,206.000 85.800 C 206.254 86.570,206.628 87.200,206.831 87.200 C 207.034 87.200,207.200 87.391,207.200 87.625 C 207.200 88.443,212.784 93.533,214.190 93.997 C 214.966 94.253,215.600 94.614,215.600 94.799 C 215.600 94.985,216.185 95.262,216.900 95.414 C 217.615 95.567,218.453 95.897,218.762 96.146 C 219.552 96.785,230.888 96.736,231.102 96.094 C 231.188 95.836,231.863 95.512,232.601 95.373 C 233.340 95.235,234.041 94.869,234.160 94.561 C 234.278 94.252,234.651 94.000,234.987 94.000 C 235.324 94.000,235.600 93.809,235.600 93.576 C 235.600 93.343,235.747 93.244,235.927 93.355 C 236.107 93.466,236.729 93.117,237.310 92.579 C 237.890 92.040,238.508 91.600,238.683 91.599 C 238.955 91.599,240.374 90.115,242.592 87.510 C 242.915 87.131,243.294 86.366,243.433 85.810 C 243.573 85.255,243.833 84.800,244.012 84.800 C 244.190 84.800,244.462 84.215,244.614 83.500 C 244.767 82.785,245.097 81.947,245.346 81.638 C 246.008 80.818,245.960 69.120,245.294 68.898 C 245.022 68.807,244.800 68.484,244.800 68.179 C 244.800 65.559,238.166 57.600,235.982 57.600 C 235.772 57.600,235.600 57.424,235.600 57.210 C 235.600 56.558,232.217 55.233,229.840 54.953 C 228.608 54.808,227.600 54.535,227.600 54.345 C 227.600 54.155,226.250 54.000,224.600 54.000 C 222.724 54.000,221.600 54.161,221.600 54.431 " stroke="none" fill="#4494ac" fill-rule="evenodd"></path><path id="path2" d="M95.700 122.272 C 94.545 122.365,93.600 122.592,93.600 122.775 C 93.600 122.959,92.790 123.231,91.800 123.379 C 90.810 123.528,90.000 123.818,90.000 124.025 C 90.000 124.231,89.739 124.400,89.420 124.400 C 89.101 124.400,88.696 124.629,88.520 124.908 C 88.344 125.188,87.705 125.634,87.100 125.900 C 86.495 126.165,86.000 126.567,86.000 126.791 C 86.000 127.016,85.724 127.200,85.387 127.200 C 85.051 127.200,84.656 127.515,84.512 127.900 C 84.367 128.285,83.479 129.352,82.539 130.270 C 81.599 131.189,80.714 132.404,80.572 132.970 C 80.430 133.537,80.167 134.000,79.988 134.000 C 79.810 134.000,79.545 134.542,79.399 135.204 C 79.254 135.866,78.884 136.911,78.577 137.525 C 77.373 139.940,77.559 149.895,78.817 150.333 C 79.028 150.407,79.200 150.835,79.200 151.286 C 79.200 151.993,80.522 154.607,81.180 155.200 C 81.301 155.310,81.656 155.895,81.968 156.500 C 82.280 157.105,82.664 157.600,82.821 157.600 C 83.185 157.600,86.400 160.804,86.400 161.167 C 86.400 161.317,87.068 161.681,87.885 161.976 C 88.702 162.272,89.615 162.758,89.914 163.057 C 90.213 163.356,90.714 163.600,91.029 163.600 C 91.343 163.600,91.600 163.763,91.600 163.962 C 91.600 164.162,92.500 164.449,93.600 164.600 C 94.699 164.751,95.700 165.038,95.823 165.237 C 96.110 165.702,102.400 165.716,102.400 165.252 C 102.400 165.060,103.300 164.784,104.400 164.638 C 105.500 164.492,106.400 164.213,106.400 164.018 C 106.400 163.823,106.940 163.545,107.600 163.400 C 108.260 163.255,108.800 162.985,108.800 162.800 C 108.800 162.615,109.352 162.342,110.027 162.194 C 110.702 162.046,111.345 161.688,111.456 161.398 C 111.567 161.109,112.062 160.771,112.556 160.647 C 113.049 160.523,113.686 159.987,113.971 159.455 C 114.255 158.923,114.918 158.258,115.444 157.976 C 115.970 157.695,116.400 157.238,116.400 156.961 C 116.400 156.684,116.636 156.219,116.925 155.929 C 117.213 155.638,117.707 154.815,118.022 154.100 C 118.337 153.385,118.711 152.800,118.853 152.800 C 118.995 152.800,119.238 152.125,119.392 151.301 C 119.547 150.476,119.870 149.680,120.111 149.531 C 120.723 149.153,120.760 138.472,120.150 138.086 C 119.903 137.928,119.573 137.210,119.416 136.489 C 119.164 135.328,118.148 133.306,116.684 131.056 C 115.872 129.807,112.128 126.000,111.713 126.000 C 111.498 126.000,110.907 125.640,110.400 125.200 C 109.893 124.760,109.235 124.400,108.939 124.400 C 108.642 124.400,108.400 124.243,108.400 124.051 C 108.400 123.859,107.640 123.581,106.712 123.432 C 105.784 123.284,104.926 123.004,104.806 122.810 C 104.543 122.384,98.627 122.035,95.700 122.272 " stroke="none" fill="#a4c4d4" fill-rule="evenodd"></path><path id="path3" d="M293.833 86.747 C 293.715 86.938,292.714 87.214,291.609 87.361 C 290.504 87.508,289.600 87.787,289.600 87.982 C 289.600 88.177,289.060 88.455,288.400 88.600 C 287.740 88.745,287.200 88.985,287.200 89.134 C 287.200 89.283,286.615 89.661,285.900 89.974 C 284.530 90.574,280.800 94.114,280.800 94.815 C 280.800 95.040,280.530 95.329,280.200 95.455 C 279.870 95.582,279.600 95.912,279.600 96.189 C 279.600 96.466,279.266 97.121,278.858 97.646 C 278.450 98.171,277.983 99.320,277.821 100.199 C 277.659 101.079,277.318 101.927,277.063 102.084 C 276.446 102.466,276.415 113.506,277.030 113.915 C 277.266 114.072,277.694 115.055,277.982 116.100 C 278.269 117.145,278.641 118.000,278.809 118.000 C 278.976 118.000,279.223 118.436,279.357 118.970 C 279.673 120.229,284.755 125.319,286.360 125.983 C 287.042 126.266,287.600 126.636,287.600 126.805 C 287.600 126.975,288.093 127.237,288.696 127.388 C 289.299 127.540,289.922 127.874,290.081 128.132 C 290.479 128.776,304.305 128.793,304.714 128.150 C 304.871 127.903,305.585 127.574,306.300 127.418 C 307.015 127.263,307.600 126.990,307.600 126.812 C 307.600 126.633,308.053 126.373,308.606 126.234 C 309.694 125.961,314.902 121.048,315.320 119.900 C 315.460 119.515,315.746 119.200,315.956 119.200 C 316.165 119.200,316.455 118.660,316.600 118.000 C 316.745 117.340,317.008 116.800,317.184 116.800 C 317.568 116.800,318.400 113.667,318.400 112.223 C 318.400 111.660,318.580 111.200,318.800 111.200 C 319.033 111.200,319.200 109.867,319.200 108.000 C 319.200 106.133,319.033 104.800,318.800 104.800 C 318.580 104.800,318.400 104.364,318.400 103.831 C 318.400 102.435,317.515 98.800,317.175 98.800 C 317.016 98.800,316.774 98.350,316.636 97.800 C 316.498 97.250,316.208 96.800,315.992 96.800 C 315.777 96.800,315.600 96.536,315.600 96.214 C 315.600 95.892,315.240 95.435,314.800 95.200 C 314.360 94.965,314.000 94.508,314.000 94.186 C 314.000 93.864,313.750 93.600,313.443 93.600 C 313.137 93.600,312.774 93.153,312.637 92.606 C 312.482 91.989,312.007 91.517,311.383 91.360 C 310.831 91.221,310.197 90.769,309.975 90.354 C 309.753 89.939,309.308 89.600,308.986 89.600 C 308.664 89.600,308.400 89.434,308.400 89.232 C 308.400 89.029,307.860 88.745,307.200 88.600 C 306.540 88.455,306.000 88.177,306.000 87.982 C 306.000 87.787,305.100 87.508,304.000 87.362 C 302.900 87.216,302.000 86.940,302.000 86.748 C 302.000 86.294,294.113 86.293,293.833 86.747 M212.419 134.037 C 211.439 134.229,210.062 134.659,209.358 134.993 C 208.655 135.327,207.791 135.600,207.440 135.600 C 207.088 135.600,206.800 135.757,206.800 135.949 C 206.800 136.141,206.080 136.413,205.200 136.554 C 204.320 136.694,203.600 136.980,203.600 137.189 C 203.600 137.397,202.880 137.784,202.000 138.047 C 201.120 138.311,200.400 138.664,200.400 138.832 C 200.400 138.999,199.875 139.252,199.233 139.393 C 198.592 139.534,197.967 139.908,197.846 140.224 C 197.724 140.541,197.349 140.800,197.013 140.800 C 196.676 140.800,196.400 140.980,196.400 141.200 C 196.400 141.420,196.130 141.600,195.800 141.600 C 195.470 141.600,194.840 141.960,194.400 142.400 C 193.960 142.840,193.414 143.200,193.187 143.200 C 192.961 143.200,192.674 143.463,192.550 143.785 C 192.427 144.106,191.990 144.476,191.579 144.607 C 190.546 144.935,182.701 152.821,182.103 154.133 C 181.836 154.720,181.433 155.200,181.209 155.200 C 180.984 155.200,180.800 155.476,180.800 155.813 C 180.800 156.149,180.543 156.524,180.228 156.645 C 179.913 156.765,179.473 157.390,179.249 158.032 C 179.025 158.674,178.652 159.200,178.421 159.200 C 178.189 159.200,178.000 159.476,178.000 159.813 C 178.000 160.149,177.730 160.529,177.400 160.655 C 177.070 160.782,176.800 161.109,176.800 161.382 C 176.800 161.654,176.440 162.293,176.000 162.800 C 175.560 163.307,175.200 163.965,175.200 164.261 C 175.200 164.558,175.034 164.800,174.831 164.800 C 174.628 164.800,174.254 165.430,174.000 166.200 C 173.746 166.970,173.372 167.600,173.169 167.600 C 172.966 167.600,172.800 167.857,172.800 168.171 C 172.800 168.486,172.575 168.981,172.300 169.271 C 171.667 169.941,169.600 174.127,169.600 174.740 C 169.600 174.993,169.440 175.200,169.245 175.200 C 169.049 175.200,168.771 175.830,168.626 176.600 C 168.482 177.370,168.208 178.000,168.017 178.000 C 167.826 178.000,167.546 178.735,167.394 179.633 C 167.243 180.531,166.878 181.729,166.584 182.295 C 166.291 182.861,165.928 184.467,165.779 185.862 C 165.629 187.258,165.348 188.400,165.153 188.400 C 164.959 188.400,164.800 191.190,164.800 194.600 C 164.800 198.010,164.939 200.800,165.110 200.800 C 165.280 200.800,165.640 202.184,165.909 203.876 C 166.178 205.568,166.556 207.053,166.749 207.176 C 166.942 207.299,167.226 207.985,167.382 208.700 C 167.537 209.415,167.815 210.000,168.000 210.000 C 168.185 210.000,168.455 210.540,168.600 211.200 C 168.745 211.860,168.993 212.400,169.151 212.400 C 169.310 212.400,169.667 213.030,169.946 213.800 C 170.224 214.570,170.620 215.200,170.826 215.200 C 171.032 215.200,171.200 215.476,171.200 215.813 C 171.200 216.149,171.470 216.529,171.800 216.655 C 172.130 216.782,172.400 217.142,172.400 217.455 C 172.400 217.769,172.663 218.126,172.985 218.250 C 173.306 218.373,173.682 218.829,173.820 219.263 C 174.096 220.133,182.221 228.400,182.799 228.400 C 182.998 228.400,183.304 228.636,183.480 228.923 C 183.656 229.211,184.385 229.683,185.100 229.972 C 185.815 230.261,186.400 230.641,186.400 230.817 C 186.400 230.993,186.940 231.255,187.600 231.400 C 188.260 231.545,188.800 231.821,188.800 232.014 C 188.800 232.206,189.430 232.482,190.200 232.626 C 190.970 232.771,191.600 233.027,191.600 233.196 C 191.600 234.613,210.258 234.671,211.175 233.257 C 211.299 233.067,212.255 232.785,213.300 232.631 C 214.345 232.477,215.200 232.190,215.200 231.994 C 215.200 231.797,215.830 231.518,216.600 231.374 C 217.370 231.229,218.000 230.969,218.000 230.795 C 218.000 230.622,218.900 230.264,220.000 230.000 C 221.100 229.736,222.000 229.372,222.000 229.192 C 222.000 229.011,222.540 228.745,223.200 228.600 C 223.860 228.455,224.400 228.171,224.400 227.968 C 224.400 227.766,224.661 227.600,224.980 227.600 C 225.299 227.600,225.704 227.355,225.880 227.057 C 226.056 226.758,226.861 226.298,227.668 226.036 C 228.475 225.774,229.352 225.298,229.617 224.980 C 229.882 224.661,230.346 224.400,230.649 224.400 C 230.952 224.400,231.200 224.214,231.200 223.987 C 231.200 223.761,231.515 223.460,231.900 223.319 C 232.285 223.178,233.097 222.554,233.703 221.932 C 234.310 221.309,234.966 220.800,235.161 220.800 C 235.722 220.800,243.122 213.275,243.390 212.433 C 243.522 212.015,243.894 211.573,244.215 211.450 C 244.537 211.326,244.800 210.949,244.800 210.613 C 244.800 210.276,244.946 210.000,245.125 210.000 C 245.304 210.000,245.698 209.370,246.000 208.600 C 246.302 207.830,246.696 207.200,246.875 207.200 C 247.054 207.200,247.200 206.924,247.200 206.587 C 247.200 206.251,247.465 205.873,247.789 205.749 C 248.113 205.624,248.501 204.870,248.651 204.071 C 248.800 203.273,249.140 202.403,249.406 202.137 C 249.672 201.871,250.006 200.922,250.149 200.027 C 250.292 199.132,250.570 198.400,250.767 198.400 C 250.964 198.400,251.249 197.500,251.400 196.400 C 251.551 195.300,251.821 194.400,252.000 194.400 C 252.179 194.400,252.454 193.455,252.611 192.300 C 252.768 191.145,253.034 190.110,253.203 190.000 C 254.679 189.035,254.655 164.800,253.177 164.800 C 253.011 164.800,252.751 163.900,252.600 162.800 C 252.449 161.700,252.176 160.800,251.994 160.800 C 251.812 160.800,251.545 160.260,251.400 159.600 C 251.255 158.940,250.978 158.400,250.784 158.400 C 250.591 158.400,250.216 157.680,249.953 156.800 C 249.689 155.920,249.322 155.200,249.137 155.200 C 248.952 155.200,248.800 154.924,248.800 154.587 C 248.800 154.251,248.530 153.871,248.200 153.745 C 247.870 153.618,247.600 153.300,247.600 153.039 C 247.600 152.550,246.738 151.283,245.500 149.953 C 245.115 149.539,244.800 149.035,244.800 148.833 C 244.800 148.631,243.900 147.570,242.800 146.476 C 241.700 145.382,240.797 144.332,240.793 144.143 C 240.785 143.725,239.007 142.000,238.584 142.000 C 238.417 142.000,237.669 141.370,236.921 140.600 C 236.173 139.830,235.295 139.200,234.968 139.200 C 234.642 139.200,234.271 138.930,234.145 138.600 C 234.018 138.270,233.658 138.000,233.345 138.000 C 233.031 138.000,232.676 137.741,232.554 137.424 C 232.433 137.108,231.808 136.734,231.167 136.593 C 230.525 136.452,230.000 136.185,230.000 136.000 C 230.000 135.815,229.415 135.537,228.700 135.382 C 227.985 135.226,227.302 134.947,227.183 134.760 C 226.568 133.799,216.219 133.292,212.419 134.037 M212.800 157.155 C 212.800 157.351,213.408 157.625,214.151 157.764 C 217.657 158.422,218.716 161.236,217.957 167.879 C 217.673 170.366,217.321 172.400,217.176 172.400 C 217.030 172.400,216.800 173.344,216.663 174.498 C 216.526 175.651,216.231 176.656,216.007 176.731 C 215.783 176.806,215.600 177.125,215.600 177.440 C 215.600 178.172,212.914 180.800,212.166 180.800 C 211.855 180.800,211.600 180.980,211.600 181.200 C 211.600 181.420,210.880 181.600,210.000 181.600 C 209.120 181.600,208.400 181.420,208.400 181.200 C 208.400 180.980,208.026 180.800,207.569 180.800 C 206.726 180.800,204.400 178.792,204.400 178.064 C 204.400 177.846,204.191 177.597,203.937 177.512 C 203.366 177.322,203.373 170.788,203.944 170.435 C 204.155 170.304,204.457 168.713,204.616 166.899 C 204.774 165.084,205.023 163.600,205.169 163.600 C 205.315 163.600,205.654 162.779,205.922 161.776 C 206.498 159.623,207.972 158.116,209.849 157.764 C 210.592 157.625,211.200 157.351,211.200 157.155 C 211.200 156.960,211.560 156.800,212.000 156.800 C 212.440 156.800,212.800 156.960,212.800 157.155 M238.944 164.029 C 241.875 166.691,241.805 166.500,241.754 171.738 C 241.728 174.356,241.531 176.602,241.314 176.743 C 241.097 176.884,240.812 178.077,240.679 179.394 C 240.547 180.710,240.250 181.850,240.019 181.927 C 239.789 182.004,239.600 182.399,239.600 182.805 C 239.600 183.211,239.365 183.781,239.078 184.071 C 238.790 184.362,238.436 184.915,238.290 185.300 C 238.144 185.685,237.758 186.000,237.432 186.000 C 237.106 186.000,236.663 186.315,236.447 186.700 C 235.556 188.287,231.126 187.599,229.130 185.564 L 227.400 183.800 227.425 179.670 C 227.440 177.234,227.624 175.429,227.873 175.270 C 228.105 175.121,228.424 173.605,228.582 171.900 C 228.739 170.195,229.019 168.800,229.202 168.800 C 229.386 168.800,229.652 168.275,229.793 167.634 C 230.082 166.317,231.576 164.400,232.313 164.400 C 232.581 164.400,232.800 164.233,232.800 164.029 C 232.800 163.078,237.897 163.078,238.944 164.029 M117.600 187.968 C 117.600 188.171,117.060 188.455,116.400 188.600 C 115.740 188.745,115.200 189.029,115.200 189.232 C 115.200 189.434,114.993 189.600,114.740 189.600 C 114.209 189.600,109.901 191.667,109.596 192.068 C 109.484 192.216,108.899 192.460,108.296 192.612 C 107.693 192.763,107.200 193.047,107.200 193.243 C 107.200 193.440,106.993 193.600,106.740 193.600 C 106.209 193.600,101.901 195.667,101.596 196.068 C 101.484 196.216,100.899 196.460,100.296 196.612 C 99.693 196.763,99.200 197.014,99.200 197.169 C 99.200 197.324,98.570 197.698,97.800 198.000 C 97.030 198.302,96.400 198.681,96.400 198.843 C 96.400 199.004,95.860 199.255,95.200 199.400 C 94.540 199.545,94.000 199.815,94.000 200.000 C 94.000 200.185,93.460 200.455,92.800 200.600 C 92.140 200.745,91.600 201.022,91.600 201.216 C 91.600 201.409,90.880 201.784,90.000 202.047 C 89.120 202.311,88.400 202.664,88.400 202.832 C 88.400 202.999,87.838 203.260,87.151 203.411 C 85.902 203.685,85.601 206.843,86.754 207.578 C 86.945 207.700,87.230 208.565,87.386 209.500 C 87.542 210.435,87.819 211.200,88.000 211.200 C 88.181 211.200,88.451 211.920,88.600 212.800 C 88.749 213.680,88.998 214.400,89.155 214.400 C 89.312 214.400,89.663 215.480,89.936 216.800 C 90.208 218.120,90.584 219.200,90.771 219.200 C 90.958 219.200,91.229 219.830,91.374 220.600 C 91.518 221.370,91.800 222.000,92.000 222.000 C 92.200 222.000,92.482 222.630,92.626 223.400 C 92.771 224.170,93.049 224.800,93.245 224.800 C 93.440 224.800,93.600 224.991,93.600 225.225 C 93.600 225.786,95.648 230.142,96.035 230.404 C 96.201 230.516,96.460 231.101,96.612 231.704 C 96.763 232.307,97.036 232.800,97.217 232.800 C 97.399 232.800,97.776 233.430,98.054 234.200 C 98.333 234.970,98.705 235.600,98.880 235.600 C 99.056 235.600,99.200 235.842,99.200 236.139 C 99.200 236.435,99.560 237.093,100.000 237.600 C 100.440 238.107,100.800 238.765,100.800 239.061 C 100.800 239.358,100.962 239.600,101.161 239.600 C 101.359 239.600,101.710 240.140,101.940 240.800 C 102.170 241.460,102.548 242.000,102.779 242.000 C 103.011 242.000,103.200 242.230,103.200 242.511 C 103.200 242.792,103.560 243.330,104.000 243.707 C 104.440 244.084,104.800 244.645,104.800 244.953 C 104.800 245.262,105.070 245.618,105.400 245.745 C 105.730 245.871,106.000 246.214,106.000 246.506 C 106.000 246.798,106.532 247.479,107.183 248.019 C 107.834 248.558,108.374 249.216,108.383 249.480 C 108.392 249.744,108.634 250.104,108.920 250.280 C 109.206 250.456,109.878 251.230,110.413 252.000 C 110.947 252.770,112.288 254.330,113.393 255.466 C 114.497 256.602,116.390 258.627,117.600 259.966 C 118.810 261.304,119.954 262.400,120.142 262.400 C 120.330 262.400,121.521 263.460,122.789 264.756 C 124.057 266.052,125.449 267.225,125.883 267.363 C 126.317 267.501,126.904 268.047,127.187 268.576 C 127.471 269.106,128.124 269.645,128.640 269.774 C 129.155 269.904,129.768 270.367,130.003 270.805 C 130.237 271.242,130.692 271.600,131.014 271.600 C 131.336 271.600,131.600 271.777,131.600 271.992 C 131.600 272.208,132.050 272.498,132.600 272.636 C 133.150 272.774,133.600 273.052,133.600 273.253 C 133.600 273.455,134.050 273.791,134.600 274.000 C 135.150 274.209,135.600 274.545,135.600 274.747 C 135.600 274.948,136.050 275.226,136.600 275.364 C 137.150 275.502,137.600 275.792,137.600 276.008 C 137.600 276.223,137.876 276.400,138.213 276.400 C 138.549 276.400,138.924 276.659,139.046 276.976 C 139.167 277.292,139.777 277.663,140.401 277.800 C 141.024 277.937,141.937 278.398,142.428 278.825 C 142.920 279.251,143.565 279.600,143.861 279.600 C 144.158 279.600,144.400 279.766,144.400 279.968 C 144.400 280.171,144.940 280.455,145.600 280.600 C 146.260 280.745,146.800 281.022,146.800 281.216 C 146.800 281.409,147.520 281.784,148.400 282.047 C 149.280 282.311,150.000 282.656,150.000 282.813 C 150.000 282.971,150.540 283.208,151.200 283.340 C 152.299 283.560,152.979 284.800,152.000 284.800 C 151.780 284.800,151.600 284.990,151.600 285.222 C 151.600 285.454,151.218 286.483,150.750 287.509 C 150.283 288.535,149.809 290.055,149.698 290.887 C 149.586 291.719,149.354 292.400,149.182 292.400 C 149.011 292.400,148.749 293.120,148.600 294.000 C 148.451 294.880,148.166 295.600,147.965 295.600 C 147.764 295.600,147.600 296.054,147.600 296.610 C 147.600 297.165,147.242 298.639,146.804 299.885 C 146.366 301.131,145.893 303.017,145.752 304.075 C 145.612 305.134,145.358 306.000,145.189 306.000 C 145.020 306.000,144.755 307.260,144.600 308.800 C 144.445 310.340,144.176 311.600,144.001 311.600 C 143.826 311.600,143.556 313.040,143.400 314.800 C 143.244 316.560,142.978 318.000,142.808 318.000 C 142.638 318.000,142.269 320.970,141.988 324.600 C 141.707 328.230,141.325 331.200,141.139 331.200 C 140.952 331.200,140.800 331.740,140.800 332.400 L 140.800 333.600 202.851 333.600 L 264.903 333.600 264.610 327.900 C 264.449 324.765,264.177 322.110,264.006 322.000 C 263.835 321.890,263.565 320.135,263.405 318.100 C 263.246 316.065,262.987 314.400,262.830 314.400 C 262.673 314.400,262.323 312.740,262.053 310.712 C 261.783 308.683,261.408 306.928,261.220 306.812 C 261.032 306.695,260.750 305.745,260.594 304.700 C 260.437 303.655,260.152 302.800,259.959 302.800 C 259.767 302.800,259.494 302.080,259.354 301.200 C 259.213 300.320,258.965 299.600,258.804 299.600 C 258.642 299.600,258.280 298.520,258.000 297.200 C 257.720 295.880,257.350 294.800,257.177 294.800 C 257.005 294.800,256.745 294.260,256.600 293.600 C 256.455 292.940,256.179 292.400,255.986 292.400 C 255.794 292.400,255.518 291.770,255.374 291.000 C 255.229 290.230,254.974 289.600,254.807 289.600 C 254.641 289.600,254.277 288.790,254.000 287.800 C 253.723 286.810,253.360 286.000,253.195 286.000 C 251.861 286.000,252.643 283.755,254.104 283.388 C 254.707 283.237,255.200 282.981,255.200 282.820 C 255.200 282.659,255.920 282.311,256.800 282.047 C 257.680 281.784,258.400 281.409,258.400 281.216 C 258.400 281.022,258.940 280.745,259.600 280.600 C 260.260 280.455,260.800 280.185,260.800 280.000 C 260.800 279.815,261.340 279.545,262.000 279.400 C 262.660 279.255,263.200 278.985,263.200 278.800 C 263.200 278.615,263.752 278.342,264.427 278.194 C 265.102 278.046,265.751 277.672,265.870 277.362 C 265.988 277.053,266.342 276.800,266.655 276.800 C 266.969 276.800,267.322 276.546,267.441 276.236 C 267.561 275.926,268.095 275.563,268.629 275.428 C 269.163 275.294,269.600 275.030,269.600 274.841 C 269.600 274.652,270.168 274.262,270.862 273.974 C 271.556 273.687,272.624 272.990,273.234 272.426 C 273.844 271.862,275.092 270.770,276.009 270.000 C 276.925 269.230,278.954 267.385,280.519 265.900 C 282.083 264.415,283.584 263.200,283.854 263.200 C 284.125 263.200,284.451 262.868,284.580 262.463 C 284.709 262.057,286.611 259.919,288.807 257.710 C 291.003 255.502,292.800 253.578,292.800 253.434 C 292.800 253.290,293.340 252.645,294.000 252.000 C 294.660 251.355,295.200 250.635,295.200 250.401 C 295.200 250.167,295.463 249.874,295.785 249.750 C 296.106 249.627,296.484 249.165,296.624 248.724 C 296.764 248.282,297.176 247.600,297.539 247.208 C 298.746 245.905,299.600 244.643,299.600 244.161 C 299.600 243.900,299.870 243.582,300.200 243.455 C 300.530 243.329,300.800 242.949,300.800 242.613 C 300.800 242.276,300.989 242.000,301.221 242.000 C 301.452 242.000,301.830 241.460,302.060 240.800 C 302.290 240.140,302.641 239.600,302.839 239.600 C 303.038 239.600,303.200 239.343,303.200 239.029 C 303.200 238.714,303.446 238.211,303.747 237.910 C 304.048 237.609,304.420 236.966,304.574 236.481 C 304.728 235.997,304.993 235.600,305.163 235.600 C 305.333 235.600,305.710 234.880,306.000 234.000 C 306.290 233.120,306.665 232.400,306.832 232.400 C 307.000 232.400,307.255 231.860,307.400 231.200 C 307.545 230.540,307.815 230.000,308.000 230.000 C 308.185 230.000,308.455 229.460,308.600 228.800 C 308.745 228.140,308.993 227.600,309.151 227.600 C 309.501 227.600,310.400 225.204,310.400 224.272 C 310.400 223.902,310.572 223.600,310.782 223.600 C 310.992 223.600,311.282 222.970,311.426 222.200 C 311.571 221.430,311.835 220.800,312.013 220.800 C 312.191 220.800,312.463 220.215,312.618 219.500 C 312.774 218.785,313.052 218.103,313.237 217.985 C 313.422 217.866,313.800 216.450,314.076 214.838 L 314.579 211.907 313.397 210.965 C 312.748 210.447,311.717 209.914,311.108 209.780 C 310.499 209.646,310.000 209.371,310.000 209.168 C 310.000 208.966,309.724 208.800,309.387 208.800 C 309.051 208.800,308.676 208.541,308.554 208.224 C 308.433 207.908,307.808 207.534,307.167 207.393 C 306.525 207.252,306.000 206.985,306.000 206.800 C 306.000 206.615,305.448 206.342,304.773 206.194 C 304.098 206.046,303.453 205.683,303.340 205.387 C 303.226 205.091,302.608 204.734,301.967 204.593 C 301.325 204.452,300.800 204.171,300.800 203.968 C 300.800 203.766,300.524 203.600,300.187 203.600 C 299.851 203.600,299.479 203.350,299.362 203.045 C 299.245 202.739,298.350 202.266,297.374 201.993 C 296.398 201.720,295.600 201.339,295.600 201.148 C 295.600 200.957,295.324 200.800,294.987 200.800 C 294.651 200.800,294.276 200.541,294.154 200.224 C 294.033 199.908,293.408 199.534,292.767 199.393 C 292.125 199.252,291.600 199.004,291.600 198.843 C 291.600 198.681,290.970 198.302,290.200 198.000 C 289.430 197.698,288.800 197.319,288.800 197.157 C 288.800 196.996,288.260 196.745,287.600 196.600 C 286.940 196.455,286.400 196.212,286.400 196.060 C 286.400 195.908,285.577 195.337,284.572 194.792 C 282.597 193.720,281.600 194.151,281.600 196.076 C 281.600 196.474,281.434 196.800,281.232 196.800 C 281.029 196.800,280.745 197.340,280.600 198.000 C 280.455 198.660,280.185 199.200,280.000 199.200 C 279.815 199.200,279.548 199.728,279.406 200.372 C 279.264 201.017,278.902 201.750,278.600 202.000 C 278.298 202.250,277.936 202.983,277.794 203.628 C 277.652 204.272,277.371 204.800,277.168 204.800 C 276.966 204.800,276.800 205.042,276.800 205.339 C 276.800 205.635,276.440 206.293,276.000 206.800 C 275.560 207.307,275.200 207.965,275.200 208.261 C 275.200 208.558,275.023 208.800,274.808 208.800 C 274.592 208.800,274.301 209.255,274.162 209.811 C 274.022 210.366,273.569 211.003,273.154 211.225 C 272.739 211.447,272.400 211.826,272.400 212.068 C 272.400 212.310,271.950 212.925,271.400 213.435 C 270.850 213.945,270.400 214.518,270.400 214.709 C 270.400 214.900,269.635 215.868,268.700 216.860 C 267.765 217.852,266.383 219.414,265.629 220.332 C 264.875 221.249,264.111 222.000,263.931 222.000 C 263.751 222.000,262.685 222.900,261.561 224.000 C 260.438 225.100,259.310 226.000,259.055 226.000 C 258.800 226.000,258.145 226.540,257.600 227.200 C 257.055 227.860,256.388 228.400,256.118 228.400 C 255.849 228.400,255.447 228.739,255.225 229.154 C 255.003 229.569,254.366 230.022,253.811 230.162 C 253.255 230.301,252.800 230.592,252.800 230.808 C 252.800 231.023,252.570 231.200,252.289 231.200 C 252.008 231.200,251.480 231.515,251.117 231.900 C 250.007 233.076,247.924 234.406,245.900 235.230 C 245.295 235.477,244.800 235.821,244.800 235.996 C 244.800 236.170,244.307 236.437,243.704 236.588 C 243.101 236.740,242.516 236.999,242.404 237.165 C 242.092 237.627,237.732 239.600,237.025 239.600 C 236.681 239.600,236.400 239.760,236.400 239.955 C 236.400 240.150,235.590 240.431,234.600 240.579 C 233.610 240.728,232.800 240.996,232.800 241.176 C 232.800 241.355,231.315 241.728,229.500 242.004 C 227.685 242.280,226.020 242.644,225.800 242.813 C 225.580 242.981,223.780 243.251,221.800 243.411 C 219.820 243.572,218.072 243.905,217.915 244.152 C 217.505 244.795,188.886 244.785,188.485 244.142 C 188.328 243.889,186.940 243.553,185.400 243.393 C 183.860 243.233,182.420 242.970,182.200 242.809 C 181.980 242.647,180.405 242.273,178.700 241.977 C 176.995 241.682,175.600 241.312,175.600 241.156 C 175.600 240.999,174.880 240.749,174.000 240.600 C 173.120 240.451,172.400 240.180,172.400 239.997 C 172.400 239.813,171.815 239.535,171.100 239.378 C 170.385 239.222,169.173 238.757,168.406 238.347 C 167.639 237.936,166.694 237.600,166.306 237.600 C 165.918 237.600,165.600 237.434,165.600 237.232 C 165.600 237.029,165.060 236.745,164.400 236.600 C 163.740 236.455,163.200 236.190,163.200 236.012 C 163.200 235.833,162.716 235.565,162.124 235.417 C 161.533 235.268,160.560 234.799,159.963 234.373 C 159.365 233.948,158.679 233.600,158.438 233.600 C 158.197 233.600,158.000 233.420,158.000 233.200 C 158.000 232.980,157.724 232.800,157.387 232.800 C 157.051 232.800,156.676 232.541,156.554 232.224 C 156.433 231.908,155.808 231.534,155.167 231.393 C 154.525 231.252,154.000 230.961,154.000 230.747 C 154.000 230.533,153.460 230.170,152.800 229.940 C 152.140 229.710,151.600 229.359,151.600 229.161 C 151.600 228.962,151.336 228.800,151.014 228.800 C 150.692 228.800,150.235 228.440,150.000 228.000 C 149.765 227.560,149.333 227.200,149.042 227.200 C 148.541 227.200,146.971 225.914,144.157 223.199 C 143.473 222.540,142.772 222.000,142.599 222.000 C 142.238 222.000,134.603 214.195,133.400 212.595 C 132.960 212.010,132.015 210.892,131.300 210.110 C 130.585 209.328,130.000 208.438,130.000 208.131 C 130.000 207.825,129.730 207.471,129.400 207.345 C 129.070 207.218,128.800 206.858,128.800 206.545 C 128.800 206.231,128.541 205.876,128.224 205.754 C 127.908 205.633,127.537 205.023,127.400 204.400 C 127.263 203.777,126.909 203.174,126.613 203.060 C 126.317 202.947,125.954 202.302,125.806 201.627 C 125.658 200.952,125.385 200.400,125.200 200.400 C 125.015 200.400,124.745 199.860,124.600 199.200 C 124.455 198.540,124.190 198.000,124.012 198.000 C 123.833 198.000,123.568 197.528,123.424 196.952 C 123.279 196.375,122.924 195.667,122.636 195.379 C 122.347 195.090,121.994 194.122,121.851 193.227 C 121.708 192.332,121.433 191.600,121.240 191.600 C 121.047 191.600,120.771 190.970,120.626 190.200 C 120.482 189.430,120.192 188.800,119.982 188.800 C 119.772 188.800,119.600 188.530,119.600 188.200 C 119.600 187.827,119.222 187.600,118.600 187.600 C 118.050 187.600,117.600 187.766,117.600 187.968 " stroke="none" fill="#14749c" fill-rule="evenodd"></path><path id="path4" d="M219.700 54.676 C 220.085 54.776,220.715 54.776,221.100 54.676 C 221.485 54.575,221.170 54.493,220.400 54.493 C 219.630 54.493,219.315 54.575,219.700 54.676 M228.100 54.676 C 228.485 54.776,229.115 54.776,229.500 54.676 C 229.885 54.575,229.570 54.493,228.800 54.493 C 228.030 54.493,227.715 54.575,228.100 54.676 " stroke="none" fill="#3c80b8" fill-rule="evenodd"></path><path id="path5" d="" stroke="none" fill="#1480bc" fill-rule="evenodd"></path><path id="path6" d="" stroke="none" fill="#14849c" fill-rule="evenodd"></path><path id="path7" d="" stroke="none" fill="#18749c" fill-rule="evenodd"></path><path id="path8" d="" stroke="none" fill="#18749c" fill-rule="evenodd"></path></g></svg>